<?xml version="1.0" encoding="utf-8"?>
<!-- Generator: Adobe Illustrator 23.0.1, SVG Export Plug-In . SVG Version: 6.00 Build 0)  -->
<svg version="1.1" id="Layer_1" xmlns="http://www.w3.org/2000/svg" xmlns:xlink="http://www.w3.org/1999/xlink" x="0px" y="0px"
	 viewBox="0 0 255.6 114.1" style="enable-background:new 0 0 255.6 114.1;" xml:space="preserve">
<style type="text/css">
	.st0{fill:#000;}
</style>
<g>
	<g>
		<path class="st0" d="M145.6,110.3L131,73.8c-0.8-2-2.2-2-3,0l-4.7,11.8c-0.8,2-2.2,2-3,0l-4.7-11.8c-0.8-2-2.2-2-3,0L98,110.3
			c-0.8,2,0.3,3.7,2.5,3.7h7.4c2.2,0,5.8,0,8,0h11.8c2.2,0,5.8,0,8,0h7.4C145.3,114,146.4,112.3,145.6,110.3z M112.9,111.4h-12
			l13.2-35.8l6.3,17.1L112.9,111.4z M116.3,111.4l5.5-14.9l5.5,14.9H116.3z M130.6,111.4l-7.4-18.7l6.3-17.1l13.2,35.8H130.6z"/>
		<path class="st0" d="M2.1,113.9c-0.6,0-1.1-0.2-1.5-0.6S0,112.4,0,111.8V72.4c0-0.6,0.2-1.1,0.6-1.5s0.9-0.6,1.5-0.6h20.3
			c0.3,0,0.5,0.1,0.7,0.3c0.2,0.2,0.3,0.4,0.3,0.7c0,0.3-0.1,0.5-0.3,0.7c-0.2,0.2-0.4,0.3-0.7,0.3H2.5c-0.2,0-0.2,0.1-0.2,0.3v16.8
			c0,0.2,0.1,0.2,0.2,0.2H19c0.3,0,0.5,0.1,0.7,0.3c0.2,0.2,0.3,0.4,0.3,0.7c0,0.3-0.1,0.5-0.3,0.7c-0.2,0.2-0.4,0.3-0.7,0.3H2.5
			c-0.2,0-0.2,0.1-0.2,0.3v19.7c0,0.2,0.1,0.2,0.2,0.2H23c0.3,0,0.5,0.1,0.7,0.3c0.2,0.2,0.3,0.4,0.3,0.7c0,0.3-0.1,0.5-0.3,0.7
			c-0.2,0.2-0.4,0.3-0.7,0.3L2.1,113.9L2.1,113.9z"/>
		<path class="st0" d="M35.7,113.9c-0.6,0-1.1-0.2-1.5-0.6s-0.6-0.9-0.6-1.5V71.4c0-0.3,0.1-0.6,0.3-0.8c0.2-0.2,0.5-0.3,0.8-0.3
			s0.6,0.1,0.8,0.3c0.2,0.2,0.4,0.5,0.4,0.8v40.2c0,0.2,0.1,0.2,0.2,0.2h19.2c0.3,0,0.5,0.1,0.7,0.3c0.2,0.2,0.3,0.4,0.3,0.7
			c0,0.3-0.1,0.5-0.3,0.7s-0.4,0.3-0.7,0.3L35.7,113.9L35.7,113.9z"/>
		<path class="st0" d="M66.2,113.9c-0.6,0-1.1-0.2-1.5-0.6s-0.6-0.9-0.6-1.5V72.4c0-0.6,0.2-1.1,0.6-1.5s0.9-0.6,1.5-0.6h20.3
			c0.3,0,0.5,0.1,0.7,0.3c0.2,0.2,0.3,0.4,0.3,0.7c0,0.3-0.1,0.5-0.3,0.7c-0.2,0.2-0.4,0.3-0.7,0.3H66.6c-0.2,0-0.2,0.1-0.2,0.3
			v16.8c0,0.2,0.1,0.2,0.2,0.2h16.5c0.3,0,0.5,0.1,0.7,0.3c0.2,0.2,0.3,0.4,0.3,0.7c0,0.3-0.1,0.5-0.3,0.7c-0.2,0.2-0.4,0.3-0.7,0.3
			H66.6c-0.2,0-0.2,0.1-0.2,0.3v19.7c0,0.2,0.1,0.2,0.2,0.2h20.6c0.3,0,0.5,0.1,0.7,0.3c0.2,0.2,0.3,0.4,0.3,0.7
			c0,0.3-0.1,0.5-0.3,0.7c-0.2,0.2-0.4,0.3-0.7,0.3L66.2,113.9L66.2,113.9z"/>
		<path class="st0" d="M156.5,113.9c-0.6,0-1.1-0.2-1.5-0.6s-0.6-0.9-0.6-1.5V72.4c0-0.6,0.2-1.1,0.6-1.5c0.4-0.4,0.9-0.6,1.5-0.6
			h20.3c0.3,0,0.5,0.1,0.7,0.3c0.2,0.2,0.3,0.4,0.3,0.7c0,0.3-0.1,0.5-0.3,0.7s-0.4,0.3-0.7,0.3h-19.9c-0.2,0-0.2,0.1-0.2,0.3v16.8
			c0,0.2,0.1,0.2,0.2,0.2h16.5c0.3,0,0.5,0.1,0.7,0.3c0.2,0.2,0.3,0.4,0.3,0.7c0,0.3-0.1,0.5-0.3,0.7s-0.4,0.3-0.7,0.3h-16.5
			c-0.2,0-0.2,0.1-0.2,0.3v19.7c0,0.2,0.1,0.2,0.2,0.2h20.6c0.3,0,0.5,0.1,0.7,0.3c0.2,0.2,0.3,0.4,0.3,0.7c0,0.3-0.1,0.5-0.3,0.7
			s-0.4,0.3-0.7,0.3L156.5,113.9L156.5,113.9z"/>
		<path class="st0" d="M189.9,113.6c-0.2,0.2-0.4,0.3-0.7,0.3s-0.5-0.1-0.7-0.3c-0.2-0.2-0.3-0.4-0.3-0.8V71.5
			c0-0.4,0.1-0.6,0.3-0.8c0.2-0.2,0.5-0.3,0.8-0.3c0.8,0,1.4,0.3,1.8,1l18.6,30.7l4.9,8.4c0,0.1,0.1,0.2,0.2,0.2
			c0.1,0,0.1-0.1,0.1-0.2c-0.2-4.1-0.4-8.2-0.4-12.1v-27c0-0.3,0.1-0.6,0.3-0.8c0.2-0.2,0.5-0.3,0.8-0.3s0.5,0.1,0.8,0.3
			c0.2,0.2,0.3,0.4,0.3,0.8v41.3c0,0.3-0.1,0.6-0.4,0.8s-0.5,0.4-0.8,0.4c-0.8,0-1.4-0.4-1.8-1.1l-18.6-30.7l-4.9-8.4
			c-0.1-0.1-0.2-0.1-0.2-0.1c-0.1,0-0.1,0-0.1,0.1c0.2,5.4,0.2,9.3,0.2,11.8v27.3C190.1,113.1,190,113.4,189.9,113.6z"/>
		<path class="st0" d="M241.2,113.5c-0.2,0.2-0.5,0.4-0.8,0.4s-0.6-0.1-0.8-0.4s-0.4-0.5-0.4-0.8V72.5c0-0.2-0.1-0.3-0.2-0.3h-12.8
			c-0.3,0-0.5-0.1-0.7-0.3c-0.2-0.2-0.3-0.4-0.3-0.7c0-0.3,0.1-0.5,0.3-0.7s0.4-0.3,0.7-0.3h28.4c0.3,0,0.5,0.1,0.7,0.3
			c0.2,0.2,0.3,0.4,0.3,0.7c0,0.3-0.1,0.5-0.3,0.7s-0.4,0.3-0.7,0.3h-12.8c-0.2,0-0.3,0.1-0.3,0.3v40.1
			C241.5,113,241.4,113.3,241.2,113.5z"/>
	</g>
	<g>
		<path class="st0" d="M35.7,43.5c-5.4,0-9.6-2-12.9-6c-3.2-4-4.9-9.3-4.9-15.9s1.7-11.9,5-15.8C26.3,2,30.7,0,36.3,0
			c4.1,0,7.6,1.4,10.6,4.3C47,4.5,47.1,4.7,47.1,5S47,5.5,46.9,5.7C46.7,5.9,46.4,6,46.2,6c-0.3,0-0.5-0.1-0.7-0.3
			C43,3.3,39.9,2,36.3,2c-5,0-8.9,1.8-11.8,5.3s-4.3,8.3-4.3,14.3c0,6.1,1.4,10.9,4.2,14.5s6.6,5.4,11.5,5.4c0.8,0,3.4,0.1,5.5-0.8
			c0.5-0.2,1-0.5,2.1-1.1c0.9-0.5,1.2-0.7,1.6-1.1c0.4-0.5,0.7-1,0.8-1.4s-0.2-12.2-0.2-12.4c0,0,0-0.2-0.1-0.2h-0.1h-9.2
			c-0.3,0-0.5-0.1-0.7-0.3c-0.2-0.2-0.3-0.4-0.3-0.7c0-0.3,0.1-0.5,0.3-0.7s0.4-0.3,0.7-0.3h9.6c0.6,0,1,0.2,1.4,0.6
			s0.6,0.8,0.6,1.4v12.4c0,1.5-0.5,2.6-1.5,3.3C43.6,42.4,40,43.5,35.7,43.5z"/>
		<path class="st0" d="M62.5,44.4c-0.6,0-1.1-0.2-1.5-0.6c-0.4-0.4-0.6-0.9-0.6-1.5V1.9c0-0.3,0.1-0.6,0.3-0.8s0.5-0.3,0.8-0.3
			s0.6,0.1,0.8,0.3s0.4,0.5,0.4,0.8v40.2c0,0.2,0.1,0.2,0.2,0.2h19.2c0.3,0,0.5,0.1,0.7,0.3s0.3,0.4,0.3,0.7S83,43.8,82.8,44
			c-0.2,0.2-0.4,0.3-0.7,0.3L62.5,44.4L62.5,44.4z"/>
		<path class="st0" d="M118.3,43.2L103.4,1.7c-0.2-0.6-0.6-0.9-1.3-0.9c-0.7,0-1.1,0.3-1.3,0.9L86,43.3c-0.1,0.1-0.1,0.2-0.1,0.3
			c0,0.1,0,0.3,0.1,0.4c0.1,0.3,0.3,0.4,0.6,0.4c0.8,0,1.3-0.4,1.5-1.1l5-14.2c0.1-0.1,0.2-0.2,0.4-0.2h17.1c0.2,0,0.3,0,0.4,0.2
			l4.9,14.2c0.3,0.7,0.8,1.1,1.6,1.1c0.3,0,0.5-0.2,0.7-0.4c0.1-0.2,0.2-0.3,0.2-0.5C118.4,43.4,118.3,43.3,118.3,43.2z M110,26.9
			H94.2c-0.2,0-0.2,0-0.2-0.2l3-8.4c2.2-6.4,3.9-11.4,5-15.1c0.1-0.1,0.1-0.1,0.2-0.1c0.1,0,0.2,0,0.2,0.1c1.3,4.4,2.9,9.4,4.9,15.1
			l2.9,8.4C110.2,26.8,110.2,26.9,110,26.9z"/>
		<path class="st0" d="M140.4,45.1c-5.4,0-9.7-2.1-13.1-6.2c-3.3-4.1-5-9.6-5-16.5c0-6.8,1.7-12.3,5-16.3C130.8,2,135.2,0,140.8,0
			c4.1,0,7.5,1.5,10.4,4.4c0.5,0.5,0.4,1-0.1,1.5c-0.2,0.2-0.4,0.3-0.6,0.3c-0.3,0-0.5-0.1-0.7-0.3c-2.5-2.5-5.5-3.8-9-3.8
			c-5,0-8.9,1.8-11.7,5.5c-2.9,3.7-4.3,8.6-4.3,14.9s1.4,11.3,4.3,15c2.9,3.7,6.7,5.6,11.5,5.6c3.9,0,7.5-1.6,10.6-4.7
			c0.2-0.2,0.4-0.3,0.6-0.3c0.3,0,0.5,0.1,0.7,0.3s0.4,0.5,0.4,0.7s-0.1,0.5-0.4,0.8C149.1,43.3,145.1,45.1,140.4,45.1z"/>
		<path class="st0" d="M164.3,44c-0.2,0.2-0.5,0.3-0.8,0.3s-0.5-0.1-0.8-0.3c-0.2-0.2-0.3-0.5-0.3-0.8V1.9c0-0.3,0.1-0.6,0.3-0.8
			s0.5-0.3,0.8-0.3s0.6,0.1,0.8,0.3s0.4,0.5,0.4,0.8v41.3C164.6,43.6,164.5,43.8,164.3,44z"/>
		<path class="st0" d="M179.9,44.4c-0.6,0-1.1-0.2-1.5-0.6c-0.4-0.4-0.6-0.9-0.6-1.5V2.9c0-0.6,0.2-1.1,0.6-1.5
			c0.4-0.4,0.9-0.6,1.5-0.6h20.3c0.3,0,0.5,0.1,0.7,0.3s0.3,0.4,0.3,0.7s-0.1,0.5-0.3,0.7s-0.4,0.3-0.7,0.3h-19.9
			c-0.2,0-0.2,0.1-0.2,0.3v16.8c0,0.2,0.1,0.2,0.2,0.2h16.5c0.3,0,0.5,0.1,0.7,0.3c0.2,0.2,0.3,0.4,0.3,0.7c0,0.3-0.1,0.5-0.3,0.7
			s-0.4,0.3-0.7,0.3h-16.5c-0.2,0-0.2,0.1-0.2,0.3v19.7c0,0.2,0.1,0.2,0.2,0.2h20.6c0.3,0,0.5,0.1,0.7,0.3s0.3,0.4,0.3,0.7
			s-0.1,0.5-0.3,0.7s-0.4,0.3-0.7,0.3h-21V44.4z"/>
		<path class="st0" d="M226.2,24c-0.1-0.2-0.1-0.3,0.1-0.3c3.6-0.4,6.4-1.6,8.4-3.6s3-4.7,3-8.1c0-7.5-4.7-11.2-14.1-11.2h-10
			c-0.6,0-1.1,0.2-1.5,0.6c-0.4,0.4-0.6,0.9-0.6,1.5v40.4c0,0.3,0.1,0.6,0.3,0.8c0.3,0.2,0.5,0.3,0.8,0.3c0.3,0,0.6-0.1,0.8-0.3
			c0.3-0.2,0.4-0.5,0.4-0.8V24.1c0-0.1,0-0.2,0.2-0.2h9.2c0.1,0,0.3,0,0.4,0.2l11.5,19.2c0.4,0.7,1,1.1,1.9,1.1
			c0.3,0,0.5-0.2,0.6-0.4c0.1-0.1,0.1-0.3,0.1-0.4c0-0.2,0-0.3-0.1-0.4L226.2,24z M222.7,21.9h-8.8c-0.1,0-0.2,0-0.2-0.2h0.1V3
			c0-0.2,0-0.3,0.2-0.3h8.7c4.1,0,7.2,0.8,9.3,2.2c2.1,1.5,3.1,3.8,3.1,7.1C235.1,18.6,231,21.9,222.7,21.9z"/>
	</g>
</g>
</svg>
